<?xml version="1.0" encoding="UTF-8" standalone="no"?>
<!DOCTYPE svg PUBLIC "-//W3C//DTD SVG 1.1//EN"
 "http://www.w3.org/Graphics/SVG/1.1/DTD/svg11.dtd">
<!-- Generated by graphviz version 2.38.0 (20140413.2041)
 -->
<!-- Title: controllers_diagram Pages: 1 -->
<svg width="638pt" height="551pt"
 viewBox="0.00 0.00 638.00 551.00" xmlns="http://www.w3.org/2000/svg" xmlns:xlink="http://www.w3.org/1999/xlink">
<g id="graph0" class="graph" transform="scale(1 1) rotate(0) translate(259.5 307.5)">
<title>controllers_diagram</title>
<polygon fill="none" stroke="none" points="-259.5,243.5 -259.5,-307.5 378.5,-307.5 378.5,243.5 -259.5,243.5"/>
<!-- _diagram_info -->
<g id="node1" class="node"><title>_diagram_info</title>
<text text-anchor="start" x="-152" y="-223.6" font-family="Times,serif" font-size="13.00">Controllers diagram</text>
<text text-anchor="start" x="-152" y="-209.6" font-family="Times,serif" font-size="13.00">Date: Aug 16 2017 &#45; 20:00</text>
<text text-anchor="start" x="-152" y="-195.6" font-family="Times,serif" font-size="13.00">Migration version: 20170816153715</text>
<text text-anchor="start" x="-152" y="-181.6" font-family="Times,serif" font-size="13.00">Generated by RailRoady 1.5.3</text>
<text text-anchor="start" x="-152" y="-167.6" font-family="Times,serif" font-size="13.00">http://railroady.prestonlee.com</text>
</g>
<!-- Users::RegistrationsController -->
<g id="node2" class="node"><title>Users::RegistrationsController</title>
<path fill="none" stroke="black" d="M76,63C76,63 258,63 258,63 264,63 270,57 270,51 270,51 270,-33 270,-33 270,-39 264,-45 258,-45 258,-45 76,-45 76,-45 70,-45 64,-39 64,-33 64,-33 64,51 64,51 64,57 70,63 76,63"/>
<text text-anchor="middle" x="167" y="-29.8" font-family="Times,serif" font-size="14.00">Users::RegistrationsController</text>
<polyline fill="none" stroke="black" points="64,-22 270,-22 "/>
<polyline fill="none" stroke="black" points="64,2 270,2 "/>
<text text-anchor="start" x="72" y="17.2" font-family="Times,serif" font-size="14.00">configure_account_update_params</text>
<text text-anchor="start" x="72" y="32.2" font-family="Times,serif" font-size="14.00">configure_sign_up_params</text>
<polyline fill="none" stroke="black" points="64,40 270,40 "/>
<text text-anchor="start" x="72" y="55.2" font-family="Times,serif" font-size="14.00">_layout</text>
</g>
<!-- Users::UnlocksController -->
<g id="node3" class="node"><title>Users::UnlocksController</title>
<path fill="none" stroke="black" d="M-227.5,239C-227.5,239 -96.5,239 -96.5,239 -90.5,239 -84.5,233 -84.5,227 -84.5,227 -84.5,157 -84.5,157 -84.5,151 -90.5,145 -96.5,145 -96.5,145 -227.5,145 -227.5,145 -233.5,145 -239.5,151 -239.5,157 -239.5,157 -239.5,227 -239.5,227 -239.5,233 -233.5,239 -227.5,239"/>
<text text-anchor="middle" x="-162" y="160.2" font-family="Times,serif" font-size="14.00">Users::UnlocksController</text>
<polyline fill="none" stroke="black" points="-239.5,168 -84.5,168 "/>
<polyline fill="none" stroke="black" points="-239.5,192 -84.5,192 "/>
<polyline fill="none" stroke="black" points="-239.5,216 -84.5,216 "/>
<text text-anchor="start" x="-231.5" y="231.2" font-family="Times,serif" font-size="14.00">_layout</text>
</g>
<!-- Users::PasswordsController -->
<g id="node4" class="node"><title>Users::PasswordsController</title>
<path fill="none" stroke="black" d="M219.5,-209C219.5,-209 362.5,-209 362.5,-209 368.5,-209 374.5,-215 374.5,-221 374.5,-221 374.5,-291 374.5,-291 374.5,-297 368.5,-303 362.5,-303 362.5,-303 219.5,-303 219.5,-303 213.5,-303 207.5,-297 207.5,-291 207.5,-291 207.5,-221 207.5,-221 207.5,-215 213.5,-209 219.5,-209"/>
<text text-anchor="middle" x="291" y="-287.8" font-family="Times,serif" font-size="14.00">Users::PasswordsController</text>
<polyline fill="none" stroke="black" points="207.5,-280 374.5,-280 "/>
<polyline fill="none" stroke="black" points="207.5,-256 374.5,-256 "/>
<polyline fill="none" stroke="black" points="207.5,-232 374.5,-232 "/>
<text text-anchor="start" x="215.5" y="-216.8" font-family="Times,serif" font-size="14.00">_layout</text>
</g>
<!-- Users::OmniauthCallbacksController -->
<g id="node5" class="node"><title>Users::OmniauthCallbacksController</title>
<path fill="none" stroke="black" d="M92,-81C92,-81 286,-81 286,-81 292,-81 298,-87 298,-93 298,-93 298,-163 298,-163 298,-169 292,-175 286,-175 286,-175 92,-175 92,-175 86,-175 80,-169 80,-163 80,-163 80,-93 80,-93 80,-87 86,-81 92,-81"/>
<text text-anchor="middle" x="189" y="-159.8" font-family="Times,serif" font-size="14.00">Users::OmniauthCallbacksController</text>
<polyline fill="none" stroke="black" points="80,-152 298,-152 "/>
<polyline fill="none" stroke="black" points="80,-128 298,-128 "/>
<polyline fill="none" stroke="black" points="80,-104 298,-104 "/>
<text text-anchor="start" x="88" y="-88.8" font-family="Times,serif" font-size="14.00">_layout</text>
</g>
<!-- Users::ConfirmationsController -->
<g id="node6" class="node"><title>Users::ConfirmationsController</title>
<path fill="none" stroke="black" d="M76.5,191C76.5,191 241.5,191 241.5,191 247.5,191 253.5,185 253.5,179 253.5,179 253.5,109 253.5,109 253.5,103 247.5,97 241.5,97 241.5,97 76.5,97 76.5,97 70.5,97 64.5,103 64.5,109 64.5,109 64.5,179 64.5,179 64.5,185 70.5,191 76.5,191"/>
<text text-anchor="middle" x="159" y="112.2" font-family="Times,serif" font-size="14.00">Users::ConfirmationsController</text>
<polyline fill="none" stroke="black" points="64.5,120 253.5,120 "/>
<polyline fill="none" stroke="black" points="64.5,144 253.5,144 "/>
<polyline fill="none" stroke="black" points="64.5,168 253.5,168 "/>
<text text-anchor="start" x="72.5" y="183.2" font-family="Times,serif" font-size="14.00">_layout</text>
</g>
<!-- Users::SessionsController -->
<g id="node7" class="node"><title>Users::SessionsController</title>
<path fill="none" stroke="black" d="M-243.5,-33C-243.5,-33 -110.5,-33 -110.5,-33 -104.5,-33 -98.5,-39 -98.5,-45 -98.5,-45 -98.5,-115 -98.5,-115 -98.5,-121 -104.5,-127 -110.5,-127 -110.5,-127 -243.5,-127 -243.5,-127 -249.5,-127 -255.5,-121 -255.5,-115 -255.5,-115 -255.5,-45 -255.5,-45 -255.5,-39 -249.5,-33 -243.5,-33"/>
<text text-anchor="middle" x="-177" y="-111.8" font-family="Times,serif" font-size="14.00">Users::SessionsController</text>
<polyline fill="none" stroke="black" points="-255.5,-104 -98.5,-104 "/>
<polyline fill="none" stroke="black" points="-255.5,-80 -98.5,-80 "/>
<polyline fill="none" stroke="black" points="-255.5,-56 -98.5,-56 "/>
<text text-anchor="start" x="-247.5" y="-40.8" font-family="Times,serif" font-size="14.00">_layout</text>
</g>
<!-- PostsController -->
<g id="node8" class="node"><title>PostsController</title>
<path fill="none" stroke="black" d="M-51.5,111.5C-51.5,111.5 25.5,111.5 25.5,111.5 31.5,111.5 37.5,105.5 37.5,99.5 37.5,99.5 37.5,-89.5 37.5,-89.5 37.5,-95.5 31.5,-101.5 25.5,-101.5 25.5,-101.5 -51.5,-101.5 -51.5,-101.5 -57.5,-101.5 -63.5,-95.5 -63.5,-89.5 -63.5,-89.5 -63.5,99.5 -63.5,99.5 -63.5,105.5 -57.5,111.5 -51.5,111.5"/>
<text text-anchor="middle" x="-13" y="-86.3" font-family="Times,serif" font-size="14.00">PostsController</text>
<polyline fill="none" stroke="black" points="-63.5,-78.5 37.5,-78.5 "/>
<text text-anchor="start" x="-55.5" y="-63.3" font-family="Times,serif" font-size="14.00">create</text>
<text text-anchor="start" x="-55.5" y="-48.3" font-family="Times,serif" font-size="14.00">destroy</text>
<text text-anchor="start" x="-55.5" y="-33.3" font-family="Times,serif" font-size="14.00">edit</text>
<text text-anchor="start" x="-55.5" y="-18.3" font-family="Times,serif" font-size="14.00">index</text>
<text text-anchor="start" x="-55.5" y="-3.3" font-family="Times,serif" font-size="14.00">new</text>
<text text-anchor="start" x="-55.5" y="11.7" font-family="Times,serif" font-size="14.00">show</text>
<text text-anchor="start" x="-55.5" y="26.7" font-family="Times,serif" font-size="14.00">update</text>
<polyline fill="none" stroke="black" points="-63.5,34.5 37.5,34.5 "/>
<polyline fill="none" stroke="black" points="-63.5,58.5 37.5,58.5 "/>
<text text-anchor="start" x="-55.5" y="73.7" font-family="Times,serif" font-size="14.00">_layout</text>
<text text-anchor="start" x="-55.5" y="88.7" font-family="Times,serif" font-size="14.00">post_params</text>
<text text-anchor="start" x="-55.5" y="103.7" font-family="Times,serif" font-size="14.00">set_post</text>
</g>
<!-- ApplicationController -->
<g id="node9" class="node"><title>ApplicationController</title>
<path fill="none" stroke="black" d="M-228,95C-228,95 -116,95 -116,95 -110,95 -104,89 -104,83 -104,83 -104,13 -104,13 -104,7 -110,1 -116,1 -116,1 -228,1 -228,1 -234,1 -240,7 -240,13 -240,13 -240,83 -240,83 -240,89 -234,95 -228,95"/>
<text text-anchor="middle" x="-172" y="16.2" font-family="Times,serif" font-size="14.00">ApplicationController</text>
<polyline fill="none" stroke="black" points="-240,24 -104,24 "/>
<polyline fill="none" stroke="black" points="-240,48 -104,48 "/>
<polyline fill="none" stroke="black" points="-240,72 -104,72 "/>
<text text-anchor="start" x="-232" y="87.2" font-family="Times,serif" font-size="14.00">_layout</text>
</g>
</g>
</svg>
