<?xml version="1.0" encoding="UTF-8" standalone="no"?>
<!DOCTYPE svg PUBLIC "-//W3C//DTD SVG 1.1//EN"
 "http://www.w3.org/Graphics/SVG/1.1/DTD/svg11.dtd">
<!-- Generated by graphviz version 2.38.0 (20140413.2041)
 -->
<!-- Title: models_diagram Pages: 1 -->
<svg width="541pt" height="230pt"
 viewBox="0.00 0.00 541.34 230.00" xmlns="http://www.w3.org/2000/svg" xmlns:xlink="http://www.w3.org/1999/xlink">
<g id="graph0" class="graph" transform="scale(1 1) rotate(0) translate(4 226)">
<title>models_diagram</title>
<polygon fill="none" stroke="none" points="-4,4 -4,-226 537.343,-226 537.343,4 -4,4"/>
<!-- _diagram_info -->
<g id="node1" class="node"><title>_diagram_info</title>
<text text-anchor="start" x="8" y="-207.6" font-family="Times,serif" font-size="13.00">Models diagram</text>
<text text-anchor="start" x="8" y="-193.6" font-family="Times,serif" font-size="13.00">Date: Aug 16 2017 &#45; 20:00</text>
<text text-anchor="start" x="8" y="-179.6" font-family="Times,serif" font-size="13.00">Migration version: 20170816153715</text>
<text text-anchor="start" x="8" y="-165.6" font-family="Times,serif" font-size="13.00">Generated by RailRoady 1.5.3</text>
<text text-anchor="start" x="8" y="-151.6" font-family="Times,serif" font-size="13.00">http://railroady.prestonlee.com</text>
</g>
<!-- Ability -->
<g id="node2" class="node"><title>Ability</title>
<polygon fill="none" stroke="black" points="287.5,-201 232.5,-201 232.5,-165 287.5,-165 287.5,-201"/>
<text text-anchor="middle" x="260" y="-179.3" font-family="Times,serif" font-size="14.00">Ability</text>
</g>
<!-- Comment -->
<g id="node3" class="node"><title>Comment</title>
<ellipse fill="none" stroke="black" cx="332" cy="-18" rx="46.2923" ry="18"/>
<text text-anchor="middle" x="332" y="-14.3" font-family="Times,serif" font-size="14.00">Comment</text>
</g>
<!-- Post -->
<g id="node4" class="node"><title>Post</title>
<ellipse fill="none" stroke="black" cx="360" cy="-90" rx="27" ry="18"/>
<text text-anchor="middle" x="360" y="-86.3" font-family="Times,serif" font-size="14.00">Post</text>
</g>
<!-- Post&#45;&gt;Comment -->
<g id="edge1" class="edge"><title>Post&#45;&gt;Comment</title>
<path fill="none" stroke="#51555c" d="M350.311,-64.7779C347.818,-58.544 345.122,-51.8046 342.585,-45.4634"/>
<ellipse fill="none" stroke="#51555c" cx="351.879" cy="-68.6971" rx="4.00001" ry="4.00001"/>
<polygon fill="#51555c" stroke="#51555c" points="342.496,-45.241 342.961,-34.2849 340.639,-40.5986 338.782,-35.9562 338.782,-35.9562 338.782,-35.9562 340.639,-40.5986 334.604,-37.6275 342.496,-45.241 342.496,-45.241"/>
</g>
<!-- ApplicationRecord -->
<g id="node5" class="node"><title>ApplicationRecord</title>
<ellipse fill="none" stroke="black" cx="456" cy="-183" rx="77.1866" ry="18"/>
<text text-anchor="middle" x="456" y="-179.3" font-family="Times,serif" font-size="14.00">ApplicationRecord</text>
</g>
<!-- User -->
<g id="node6" class="node"><title>User</title>
<ellipse fill="none" stroke="black" cx="333" cy="-183" rx="27.0966" ry="18"/>
<text text-anchor="middle" x="333" y="-179.3" font-family="Times,serif" font-size="14.00">User</text>
</g>
<!-- User&#45;&gt;Comment -->
<g id="edge3" class="edge"><title>User&#45;&gt;Comment</title>
<path fill="none" stroke="#23fe18" d="M328.705,-156.894C325.426,-134.603 321.813,-101.142 324,-72 324.637,-63.5179 325.838,-54.3361 327.121,-46.0356"/>
<ellipse fill="none" stroke="#23fe18" cx="329.323" cy="-160.904" rx="4.00001" ry="4.00001"/>
<polygon fill="#23fe18" stroke="#23fe18" points="327.13,-45.9796 333.192,-36.8417 327.941,-41.0458 328.752,-36.1119 328.752,-36.1119 328.752,-36.1119 327.941,-41.0458 324.311,-35.3822 327.13,-45.9796 327.13,-45.9796"/>
</g>
<!-- User&#45;&gt;Post -->
<g id="edge2" class="edge"><title>User&#45;&gt;Post</title>
<path fill="none" stroke="#7508e3" d="M340.386,-157.107C344.024,-144.844 348.414,-130.048 352.118,-117.566"/>
<ellipse fill="none" stroke="#7508e3" cx="339.216" cy="-161.049" rx="4.00001" ry="4.00001"/>
<polygon fill="#7508e3" stroke="#7508e3" points="352.191,-117.319 359.35,-109.012 353.613,-112.526 355.036,-107.732 355.036,-107.732 355.036,-107.732 353.613,-112.526 350.721,-106.452 352.191,-117.319 352.191,-117.319"/>
</g>
</g>
</svg>
