<?xml version="1.0" encoding="UTF-8" standalone="no"?>
<!DOCTYPE svg PUBLIC "-//W3C//DTD SVG 1.1//EN"
 "http://www.w3.org/Graphics/SVG/1.1/DTD/svg11.dtd">
<!-- Generated by graphviz version 2.38.0 (20140413.2041)
 -->
<!-- Title: models_diagram Pages: 1 -->
<svg width="799pt" height="581pt"
 viewBox="0.00 0.00 799.34 581.00" xmlns="http://www.w3.org/2000/svg" xmlns:xlink="http://www.w3.org/1999/xlink">
<g id="graph0" class="graph" transform="scale(1 1) rotate(0) translate(4 577)">
<title>models_diagram</title>
<polygon fill="none" stroke="none" points="-4,4 -4,-577 795.343,-577 795.343,4 -4,4"/>
<!-- _diagram_info -->
<g id="node1" class="node"><title>_diagram_info</title>
<text text-anchor="start" x="8" y="-469.1" font-family="Times,serif" font-size="13.00">Models diagram</text>
<text text-anchor="start" x="8" y="-455.1" font-family="Times,serif" font-size="13.00">Date: Aug 16 2017 &#45; 20:00</text>
<text text-anchor="start" x="8" y="-441.1" font-family="Times,serif" font-size="13.00">Migration version: 20170816153715</text>
<text text-anchor="start" x="8" y="-427.1" font-family="Times,serif" font-size="13.00">Generated by RailRoady 1.5.3</text>
<text text-anchor="start" x="8" y="-413.1" font-family="Times,serif" font-size="13.00">http://railroady.prestonlee.com</text>
</g>
<!-- Ability -->
<g id="node2" class="node"><title>Ability</title>
<polygon fill="none" stroke="black" points="232.5,-421.5 232.5,-467.5 287.5,-467.5 287.5,-421.5 232.5,-421.5"/>
<text text-anchor="middle" x="260" y="-452.3" font-family="Times,serif" font-size="14.00">Ability</text>
<polyline fill="none" stroke="black" points="232.5,-444.5 287.5,-444.5 "/>
<text text-anchor="middle" x="260" y="-429.3" font-family="Times,serif" font-size="14.00"> </text>
</g>
<!-- Comment -->
<g id="node3" class="node"><title>Comment</title>
<path fill="none" stroke="black" d="M352,-0.5C352,-0.5 572,-0.5 572,-0.5 578,-0.5 584,-6.5 584,-12.5 584,-12.5 584,-109.5 584,-109.5 584,-115.5 578,-121.5 572,-121.5 572,-121.5 352,-121.5 352,-121.5 346,-121.5 340,-115.5 340,-109.5 340,-109.5 340,-12.5 340,-12.5 340,-6.5 346,-0.5 352,-0.5"/>
<text text-anchor="middle" x="462" y="-106.3" font-family="Times,serif" font-size="14.00">Comment</text>
<polyline fill="none" stroke="black" points="340,-98.5 584,-98.5 "/>
<text text-anchor="start" x="348" y="-83.3" font-family="Times,serif" font-size="14.00">id :integer</text>
<text text-anchor="start" x="348" y="-68.3" font-family="Times,serif" font-size="14.00">content :text</text>
<text text-anchor="start" x="348" y="-53.3" font-family="Times,serif" font-size="14.00">post_id :integer</text>
<text text-anchor="start" x="348" y="-38.3" font-family="Times,serif" font-size="14.00">user_id :integer</text>
<text text-anchor="start" x="348" y="-23.3" font-family="Times,serif" font-size="14.00">created_at :timestamp without time zone</text>
<text text-anchor="start" x="348" y="-8.3" font-family="Times,serif" font-size="14.00">updated_at :timestamp without time zone</text>
</g>
<!-- Post -->
<g id="node4" class="node"><title>Post</title>
<path fill="none" stroke="black" d="M427,-158.5C427,-158.5 647,-158.5 647,-158.5 653,-158.5 659,-164.5 659,-170.5 659,-170.5 659,-267.5 659,-267.5 659,-273.5 653,-279.5 647,-279.5 647,-279.5 427,-279.5 427,-279.5 421,-279.5 415,-273.5 415,-267.5 415,-267.5 415,-170.5 415,-170.5 415,-164.5 421,-158.5 427,-158.5"/>
<text text-anchor="middle" x="537" y="-264.3" font-family="Times,serif" font-size="14.00">Post</text>
<polyline fill="none" stroke="black" points="415,-256.5 659,-256.5 "/>
<text text-anchor="start" x="423" y="-241.3" font-family="Times,serif" font-size="14.00">id :integer</text>
<text text-anchor="start" x="423" y="-226.3" font-family="Times,serif" font-size="14.00">tittle :character varying</text>
<text text-anchor="start" x="423" y="-211.3" font-family="Times,serif" font-size="14.00">content :text</text>
<text text-anchor="start" x="423" y="-196.3" font-family="Times,serif" font-size="14.00">user_id :integer</text>
<text text-anchor="start" x="423" y="-181.3" font-family="Times,serif" font-size="14.00">created_at :timestamp without time zone</text>
<text text-anchor="start" x="423" y="-166.3" font-family="Times,serif" font-size="14.00">updated_at :timestamp without time zone</text>
</g>
<!-- Post&#45;&gt;Comment -->
<g id="edge1" class="edge"><title>Post&#45;&gt;Comment</title>
<path fill="none" stroke="#290f51" d="M504.688,-150.79C501.491,-144.141 498.243,-137.384 495.038,-130.72"/>
<ellipse fill="none" stroke="#290f51" cx="506.484" cy="-154.527" rx="4.00002" ry="4.00002"/>
<polygon fill="#290f51" stroke="#290f51" points="495.038,-130.72 494.761,-119.757 492.872,-126.214 490.705,-121.707 490.705,-121.707 490.705,-121.707 492.872,-126.214 486.65,-123.657 495.038,-130.72 495.038,-130.72"/>
</g>
<!-- ApplicationRecord -->
<g id="node5" class="node"><title>ApplicationRecord</title>
<ellipse fill="none" stroke="black" cx="714" cy="-444.5" rx="77.1866" ry="18"/>
<text text-anchor="middle" x="714" y="-440.8" font-family="Times,serif" font-size="14.00">ApplicationRecord</text>
</g>
<!-- User -->
<g id="node6" class="node"><title>User</title>
<path fill="none" stroke="black" d="M317.5,-316.5C317.5,-316.5 606.5,-316.5 606.5,-316.5 612.5,-316.5 618.5,-322.5 618.5,-328.5 618.5,-328.5 618.5,-560.5 618.5,-560.5 618.5,-566.5 612.5,-572.5 606.5,-572.5 606.5,-572.5 317.5,-572.5 317.5,-572.5 311.5,-572.5 305.5,-566.5 305.5,-560.5 305.5,-560.5 305.5,-328.5 305.5,-328.5 305.5,-322.5 311.5,-316.5 317.5,-316.5"/>
<text text-anchor="middle" x="462" y="-557.3" font-family="Times,serif" font-size="14.00">User</text>
<polyline fill="none" stroke="black" points="305.5,-549.5 618.5,-549.5 "/>
<text text-anchor="start" x="313.5" y="-534.3" font-family="Times,serif" font-size="14.00">id :integer</text>
<text text-anchor="start" x="313.5" y="-519.3" font-family="Times,serif" font-size="14.00">email :character varying</text>
<text text-anchor="start" x="313.5" y="-504.3" font-family="Times,serif" font-size="14.00">encrypted_password :character varying</text>
<text text-anchor="start" x="313.5" y="-489.3" font-family="Times,serif" font-size="14.00">reset_password_token :character varying</text>
<text text-anchor="start" x="313.5" y="-474.3" font-family="Times,serif" font-size="14.00">reset_password_sent_at :timestamp without time zone</text>
<text text-anchor="start" x="313.5" y="-459.3" font-family="Times,serif" font-size="14.00">remember_created_at :timestamp without time zone</text>
<text text-anchor="start" x="313.5" y="-444.3" font-family="Times,serif" font-size="14.00">sign_in_count :integer</text>
<text text-anchor="start" x="313.5" y="-429.3" font-family="Times,serif" font-size="14.00">current_sign_in_at :timestamp without time zone</text>
<text text-anchor="start" x="313.5" y="-414.3" font-family="Times,serif" font-size="14.00">last_sign_in_at :timestamp without time zone</text>
<text text-anchor="start" x="313.5" y="-399.3" font-family="Times,serif" font-size="14.00">current_sign_in_ip :inet</text>
<text text-anchor="start" x="313.5" y="-384.3" font-family="Times,serif" font-size="14.00">last_sign_in_ip :inet</text>
<text text-anchor="start" x="313.5" y="-369.3" font-family="Times,serif" font-size="14.00">created_at :timestamp without time zone</text>
<text text-anchor="start" x="313.5" y="-354.3" font-family="Times,serif" font-size="14.00">updated_at :timestamp without time zone</text>
<text text-anchor="start" x="313.5" y="-339.3" font-family="Times,serif" font-size="14.00">name :character varying</text>
<text text-anchor="start" x="313.5" y="-324.3" font-family="Times,serif" font-size="14.00">role :integer</text>
</g>
<!-- User&#45;&gt;Comment -->
<g id="edge3" class="edge"><title>User&#45;&gt;Comment</title>
<path fill="none" stroke="#d2b556" d="M410.168,-308.544C398.445,-260.664 392.857,-206.614 406,-158 408.485,-148.807 412.094,-139.59 416.3,-130.701"/>
<ellipse fill="none" stroke="#d2b556" cx="411.197" cy="-312.604" rx="4.00001" ry="4.00001"/>
<polygon fill="#d2b556" stroke="#d2b556" points="416.396,-130.51 424.901,-123.587 418.637,-126.04 420.878,-121.57 420.878,-121.57 420.878,-121.57 418.637,-126.04 416.855,-119.553 416.396,-130.51 416.396,-130.51"/>
</g>
<!-- User&#45;&gt;Post -->
<g id="edge2" class="edge"><title>User&#45;&gt;Post</title>
<path fill="none" stroke="#ced1d6" d="M507.248,-308.66C509.466,-302.051 511.646,-295.555 513.755,-289.27"/>
<ellipse fill="none" stroke="#ced1d6" cx="505.922" cy="-312.614" rx="4.00001" ry="4.00001"/>
<polygon fill="#ced1d6" stroke="#ced1d6" points="513.825,-289.061 521.273,-281.012 515.416,-284.321 517.006,-279.581 517.006,-279.581 517.006,-279.581 515.416,-284.321 512.74,-278.149 513.825,-289.061 513.825,-289.061"/>
</g>
</g>
</svg>
